<?xml version="1.0" ?><svg data-name="Layer 1" id="Layer_1" viewBox="0 0 512 512" xmlns="http://www.w3.org/2000/svg"><path d="M108.33,209.35h0a5.38,5.38,0,0,0,5.37-5.4l-.07-18.46a33.2,33.2,0,0,1,33.08-33.34h.12A33.24,33.24,0,0,1,180,185.22l.07,18.45A5.39,5.39,0,0,0,185.5,209h0a5.38,5.38,0,0,0,5.37-5.4l-.07-18.46A44,44,0,0,0,165,145.31,29.29,29.29,0,0,0,146.58,93.2h-.12a29.28,29.28,0,0,0-18.06,52.23,44,44,0,0,0-25.52,40.1L103,204A5.38,5.38,0,0,0,108.33,209.35Zm25.1-99.9A18.45,18.45,0,0,1,146.51,104h.07a18.53,18.53,0,0,1,.08,37.06h-.07a18.53,18.53,0,0,1-13.16-31.58Z"/><path d="M229.69,117.28H374.17a5.38,5.38,0,0,0,0-10.76H229.69a5.38,5.38,0,1,0,0,10.76Z"/><path d="M229.69,157.78H374.17a5.38,5.38,0,0,0,0-10.76H229.69a5.38,5.38,0,1,0,0,10.76Z"/><path d="M229.69,198.28H374.17a5.38,5.38,0,0,0,0-10.76H229.69a5.38,5.38,0,1,0,0,10.76Z"/><path d="M108.26,246.45H374.17a5.39,5.39,0,0,0,0-10.77H108.26a5.39,5.39,0,0,0,0,10.77Z"/><path d="M274.56,290.41H108.26a5.39,5.39,0,0,0,0,10.77h166.3a5.39,5.39,0,1,0,0-10.77Z"/><path d="M467.93,326.41a64.73,64.73,0,0,0-25.81-51.72V57.83a5.38,5.38,0,0,0-5.39-5.38H49.45a5.38,5.38,0,0,0-5.38,5.38V367.29a5.38,5.38,0,0,0,5.38,5.38H357.82a67.11,67.11,0,0,0,5.83,5.08,6.83,6.83,0,0,0-.06.79v75.63a5.41,5.41,0,0,0,3.32,5,5.47,5.47,0,0,0,5.87-1.17l30.36-30.37L433.5,458a5.38,5.38,0,0,0,3.81,1.57,5.47,5.47,0,0,0,2.06-.4,5.41,5.41,0,0,0,3.32-5V378.54a6.83,6.83,0,0,0-.06-.79A64.75,64.75,0,0,0,467.93,326.41Zm-10.76,0a54,54,0,1,1-54-54A54.09,54.09,0,0,1,457.17,326.41ZM54.83,63.21H431.35V268.09A64.77,64.77,0,0,0,349,361.91H54.83Zm377.1,378-25-25a5.38,5.38,0,0,0-7.62,0l-25,25V384.45a64.69,64.69,0,0,0,57.58,0Z"/><path d="M403.14,290.41a36,36,0,1,0,36,36A36,36,0,0,0,403.14,290.41Zm0,61.24a25.24,25.24,0,1,1,25.24-25.24A25.26,25.26,0,0,1,403.14,351.65Z"/></svg>